<svg id="Layer_1" data-name="Layer 1" xmlns="http://www.w3.org/2000/svg" xmlns:xlink="http://www.w3.org/1999/xlink" width="640" height="480" viewBox="0 0 640 480"><defs><style>.cls-1{fill:none;}.cls-2,.cls-7{fill:#c6dd7f;}.cls-2,.cls-3,.cls-4{mix-blend-mode:multiply;}.cls-3,.cls-5{fill:#e9ddb7;}.cls-4,.cls-6{fill:#a6d0e4;}.cls-8{fill:#fff;}.cls-9{fill:url(#Alyssa);}.cls-10{fill:url(#radial-gradient);}</style><pattern id="Alyssa" data-name="Alyssa" width="144.1299" height="138.3623" patternUnits="userSpaceOnUse" viewBox="0 0 144.13 138.362"><rect class="cls-1" width="144.1299" height="138.3623"/><path class="cls-2" d="M211.0732,158.5215c-11.76-1.3838-19.3691.3457-22.6543,3.1133-3.0195,2.5429-4.9551,5.4052-2.248,11.9316,2.9394,7.0908,1.5332,14.7324-5.5352,15.91-6.2246,1.0372-10.8945-4.8417-11.24-12.2783-.24-5.1826-1.9024-8.3008-5.5332-7.6084-3.6328.6914-4.6289,5.9-3.6328,11.7588,1.3847,8.1279,5.5351,11.76,6.2265,20.2334.4942,6.0547-2.9394,13.6621-12.4511,15.0449-9.3008,1.3536-15.91-4.3222-16.6016-10.5488-.7324-6.5879,3.6309-10.8945,3.1113-17.6387-.5176-6.7451-4.0117-10.1718-5.8789-17.2939-2.7676-10.5488,1.211-19.0225,7.7813-22.6543,14.7461-8.1484,22.832,3.6416,35.9707,1.5557,10.8965-1.7286,23.3476-18.1573,33.0312-19.5411,8.2266-1.1748,13.834,4.669,15.0449,14.0079S221.7236,159.7754,211.0732,158.5215Zm-42.1953.5185a4.15,4.15,0,1,0-4.15,4.15A4.1513,4.1513,0,0,0,168.8779,159.04Zm49.459-15.3906a1.73,1.73,0,1,0-1.7305,1.7295A1.73,1.73,0,0,0,218.3369,143.6494Z"/><path class="cls-3" d="M48.832,139.334c0,7.166,4.5879,13.8134-1,16.333-8.5,3.833-27.9995-14.333-27.9995-36.167,0-12,8.6675-19,17.8335-19,12.334,0,18,8.167,18,17.5S48.832,131.14,48.832,139.334Zm-5.4082-5.3692A2.0752,2.0752,0,1,0,41.35,136.04,2.0751,2.0751,0,0,0,43.4238,133.9648Z"/><path class="cls-4" d="M123.5312,162.8281c-7.8711,2.7373-19.4394-15.2969-17.67-27.0185,1.24-8.2276,7.1231-13.1895,13.0879-14.2168,7.5254-1.2969,12.8984,2.6,13.2988,7.2431.5469,6.3086-3.6328,7.5176-4.2226,14.958C127.4629,150.9287,131.7168,159.98,123.5312,162.8281Zm-3.789-27.5078a2.5938,2.5938,0,1,0-2.5938,2.5937A2.5944,2.5944,0,0,0,119.7422,135.32Z"/><path class="cls-3" d="M19.3872,140.3633a2.5938,2.5938,0,1,1-2.5938-2.5938A2.5942,2.5942,0,0,1,19.3872,140.3633Z"/><path class="cls-4" d="M84.6094,132.64c.74,8.1006,12.6718,7.0166,17.9043,14.2139,10.5195,14.4746-1.2188,46.3652-21.6309,46.3652-11.74,0-24.2168-9.7187-24.2168-29.2187,0-15.834,10.166-21.5,8.25-42.166-1.0059-10.834-12.5-20.3428-12.5-34.75,0-5.9219,3.5859-13.4473,11.5527-13.4473,7.0547,0,10.8223,5.9531,10.8223,12.9,0,6.7978-5.3809,15.74,1.375,19.0469,5.2422,2.5654,13.2109-4.77,19.5-6.75,5.1914-1.6358,12.3887.2246,14.75,8.5,2.5312,8.8759-3.252,14.7451-11.5918,16.6933C92.5058,125.5039,84.0215,126.1982,84.6094,132.64ZM68.625,102.081a3.2862,3.2862,0,1,0-3.2852,3.2852A3.2861,3.2861,0,0,0,68.625,102.081Zm25.9844,9.6954a2.3291,2.3291,0,1,0-2.33-2.33A2.3294,2.3294,0,0,0,94.6094,111.7764ZM74.625,171.4482a3.2862,3.2862,0,1,0-3.2871,3.2852A3.2865,3.2865,0,0,0,74.625,171.4482Z"/><path class="cls-2" d="M66.9433,158.5215c-11.76-1.3838-19.3691.3457-22.6543,3.1133-3.02,2.5429-4.955,5.4052-2.248,11.9316,2.9394,7.0908,1.5332,14.7324-5.5352,15.91-6.2246,1.0372-10.8945-4.8417-11.24-12.2783-.24-5.1826-1.9019-8.3008-5.5327-7.6084-3.6328.6914-4.6289,5.9-3.6328,11.7588,1.3847,8.1279,5.5351,11.76,6.2265,20.2334.4942,6.0547-2.9394,13.6621-12.4511,15.0449-9.3008,1.3536-15.91-4.3222-16.6016-10.5488-.7324-6.5879,3.6309-10.8945,3.1113-17.6387-.5175-6.7451-4.0117-10.1718-5.8789-17.2939-2.7676-10.5488,1.211-19.0225,7.7813-22.6543,14.7461-8.1484,22.832,3.6416,35.97,1.5557,10.8965-1.7286,23.3476-18.1573,33.0312-19.5411,8.2266-1.1748,13.834,4.669,15.045,14.0079S77.5937,159.7754,66.9433,158.5215ZM24.748,159.04a4.15,4.15,0,1,0-4.15,4.15A4.1509,4.1509,0,0,0,24.748,159.04Zm49.459-15.3906a1.73,1.73,0,1,0-1.73,1.7295A1.73,1.73,0,0,0,74.207,143.6494Z"/><path class="cls-4" d="M190.3213,111.9873c0,6.2266-4.15,10.7207-8.6465,11.5859s-8.3184-1.2812-12.9707,1.211c-4.8418,2.5937-7.09,11.0683-16.7754,11.0683-7.9551,0-15.2168-7.9551-15.2168-18.85,0-20.2344,13.1426-29.2265,25.5937-29.2265C178.9072,87.7764,190.3213,100.4014,190.3213,111.9873ZM170.6064,97.6338a3.8047,3.8047,0,1,0-3.8047,3.8047A3.8039,3.8039,0,0,0,170.6064,97.6338Z"/><path class="cls-2" d="M211.0732,20.1592c-11.76-1.3838-19.3691.3457-22.6543,3.1132-3.0195,2.543-4.9551,5.4053-2.248,11.9317,2.9394,7.0908,1.5332,14.7324-5.5352,15.91-6.2246,1.0372-10.8945-4.8418-11.24-12.2783-.24-5.1826-1.9024-8.3008-5.5332-7.6084-3.6328.6914-4.6289,5.9-3.6328,11.7588,1.3847,8.1279,5.5351,11.76,6.2265,20.2334.4942,6.0547-2.9394,13.6621-12.4511,15.0449-9.3008,1.3536-15.91-4.3222-16.6016-10.5488-.7324-6.5879,3.6309-10.8945,3.1113-17.6387-.5176-6.7451-4.0117-10.1718-5.8789-17.2939-2.7676-10.5488,1.211-19.0225,7.7813-22.6543,14.7461-8.1484,22.832,3.6416,35.9707,1.5557C189.2842,9.956,201.7353-6.4727,211.4189-7.8565c8.2266-1.1748,13.834,4.669,15.0449,14.0079S221.7236,21.4131,211.0732,20.1592Zm-42.1953.5185a4.15,4.15,0,1,0-4.15,4.15A4.1513,4.1513,0,0,0,168.8779,20.6777Zm49.459-15.3906a1.73,1.73,0,1,0-1.7305,1.73A1.73,1.73,0,0,0,218.3369,5.2871Z"/><path class="cls-4" d="M31.832,83.6377c-13.9565,1.9883-21.1655-13.332-17.6655-20.332,3.666-7.334,12.1186-4.168,19.4995-4.168,9.666,0,16.3672-7.5684,20.416-2.25C58.332,62.4717,49.0722,81.1826,31.832,83.6377Zm.5234-17.4785a2.248,2.248,0,1,0-2.248,2.248A2.2485,2.2485,0,0,0,32.3554,66.1592Z"/><path class="cls-3" d="M48.832.9717c0,7.166,4.5879,13.8134-1,16.333-8.5,3.833-27.9995-14.333-27.9995-36.167,0-12,8.6675-19,17.8335-19,12.334,0,18,8.167,18,17.5S48.832-7.2227,48.832.9717ZM43.4238-4.3975A2.0751,2.0751,0,0,0,41.35-6.4727a2.0755,2.0755,0,0,0-2.0762,2.0752A2.0762,2.0762,0,0,0,41.35-2.3223,2.0758,2.0758,0,0,0,43.4238-4.3975Z"/><path class="cls-4" d="M46.1914,111.9873c0,6.2266-4.15,10.7207-8.6465,11.5859s-8.3184-1.2812-12.9707,1.211c-4.8413,2.5937-7.0894,11.0683-16.7749,11.0683-7.9551,0-15.2168-7.9551-15.2168-18.85,0-20.2344,13.1426-29.2265,25.5937-29.2265C34.7773,87.7764,46.1914,100.4014,46.1914,111.9873ZM26.4765,97.6338a3.8044,3.8044,0,1,0-3.8042,3.8047A3.8038,3.8038,0,0,0,26.4765,97.6338Z"/><path class="cls-2" d="M45.5,88.2959a2.4209,2.4209,0,1,1-2.4219-2.4219A2.4211,2.4211,0,0,1,45.5,88.2959Z"/><path class="cls-4" d="M129.1992,69.792c-3.1914,4.68,1.0391,10.7207-1.3828,15.2168-2.4219,4.498-6.7442,5.0156-9.8574,2.5957-3.6348-2.8281-3.41-6.6426-8.3008-8.82-5.5293-2.4649-17.9844,2.248-19.7149-7.2637-.875-4.8106,2.375-8.5664,7.2637-9.6836,6.0527-1.3828,9.3516-.18,15.3906-3.1133,6.0528-2.9394,11.2422-8.9931,22.1368-12.1054,10.4062-2.9747,16.0722,1.5566,16.6015,5.8789C152.373,60.9717,134.209,62.4463,129.1992,69.792Zm-2.248-7.4375a2.2481,2.2481,0,1,0-2.2481,2.248A2.2485,2.2485,0,0,0,126.9512,62.3545Z"/><path class="cls-3" d="M156.166,108.9717c0,17.166-14.5,25.5-27,22.832-10.2637-2.1895-12.834-17.332-16.668-26.166-3.7129-8.5567-8.832-22.5-20.166-22.5-11.1973,0-12.832,14.5-23.666,14.5-11,0-24.5-15.666-24.5-39.666,0-14.667,9.7988-31.4551,20.834-30.667,11.666.833,4.5,19.667,15.332,19.667,9.5,0,7.8574-16.2588,9.168-23.334,1.666-9,6.832-14.166,18.498-13.166,14.4434,1.2373,22.334,13.5,18.8711,23.3437C122.84,45.2666,103,51.1377,105.332,64.3057c1.3457,7.5917,13,11.998,26,16.166C145.8613,85.1279,156.166,91.8037,156.166,108.9717ZM111.2148,33.1289A3.2862,3.2862,0,1,0,114.5,29.8428,3.2852,3.2852,0,0,0,111.2148,33.1289ZM64.5215,58.0322a1.73,1.73,0,1,0-1.7286,1.7285A1.73,1.73,0,0,0,64.5215,58.0322ZM81.9883,68.7529a3.8047,3.8047,0,1,0-3.8047,3.8047A3.8044,3.8044,0,0,0,81.9883,68.7529Zm19.8886-15.5635a1.5566,1.5566,0,1,0-1.5566,1.5557A1.5562,1.5562,0,0,0,101.8769,53.1894ZM131.52,107.8838a3.1738,3.1738,0,1,0-3.1738,3.1738A3.1737,3.1737,0,0,0,131.52,107.8838Z"/><path class="cls-4" d="M123.5312,24.4658c-7.8711,2.7373-19.4394-15.2969-17.67-27.0185,1.24-8.2276,7.1231-13.1895,13.0879-14.2168,7.5254-1.2969,12.8984,2.6005,13.2988,7.2431.5469,6.3086-3.6328,7.5176-4.2226,14.958C127.4629,12.5664,131.7168,21.6172,123.5312,24.4658ZM119.7422-3.042a2.5944,2.5944,0,0,0-2.5938-2.5947,2.5931,2.5931,0,0,0-2.5937,2.5947,2.5929,2.5929,0,0,0,2.5937,2.5937A2.5942,2.5942,0,0,0,119.7422-3.042Z"/><path class="cls-3" d="M19.3872,2.001A2.5938,2.5938,0,1,1,16.7934-.5928,2.5942,2.5942,0,0,1,19.3872,2.001Z"/><path class="cls-3" d="M153.3847,88.7373c0-8.41-5.0781-15.2266-11.34-15.2266s-11.34,6.8164-11.34,15.2266c0,8.4082,5.0781,12.4414,11.34,12.4414S153.3847,97.1455,153.3847,88.7373Z"/><path class="cls-4" d="M84.6094-5.7227c.74,8.1006,12.6718,7.0166,17.9043,14.2139,10.5195,14.4746-1.2188,46.3652-21.6309,46.3652-11.74,0-24.2168-9.7187-24.2168-29.2187,0-15.834,10.166-21.5,8.25-42.166-1.0059-10.834-12.5-20.3428-12.5-34.75,0-5.9219,3.5859-13.4473,11.5527-13.4473,7.0547,0,10.8223,5.9531,10.8223,12.9,0,6.7978-5.3809,15.74,1.375,19.0469,5.2422,2.5654,13.2109-4.77,19.5-6.75,5.1914-1.6358,12.3887.2246,14.75,8.5,2.5312,8.8759-3.252,14.7451-11.5918,16.6933C92.5058-12.8584,84.0215-12.1641,84.6094-5.7227ZM68.625-36.2813A3.2861,3.2861,0,0,0,65.34-39.5684a3.2878,3.2878,0,0,0-3.2871,3.2871A3.2867,3.2867,0,0,0,65.34-32.9961,3.285,3.285,0,0,0,68.625-36.2813ZM94.6094-26.586a2.3293,2.3293,0,0,0,2.3281-2.33,2.3283,2.3283,0,0,0-2.3281-2.3282,2.3287,2.3287,0,0,0-2.33,2.3282A2.33,2.33,0,0,0,94.6094-26.586ZM74.625,33.0859a3.2862,3.2862,0,1,0-3.2871,3.2852A3.2865,3.2865,0,0,0,74.625,33.0859Z"/><path class="cls-2" d="M66.9433,20.1592c-11.76-1.3838-19.3691.3457-22.6543,3.1132-3.02,2.543-4.955,5.4053-2.248,11.9317,2.9394,7.0908,1.5332,14.7324-5.5352,15.91-6.2246,1.0372-10.8945-4.8418-11.24-12.2783-.24-5.1826-1.9019-8.3008-5.5327-7.6084-3.6328.6914-4.6289,5.9-3.6328,11.7588,1.3847,8.1279,5.5351,11.76,6.2265,20.2334.4942,6.0547-2.9394,13.6621-12.4511,15.0449C.5747,79.6182-6.0347,73.9424-6.7261,67.7158c-.7324-6.5879,3.6309-10.8945,3.1113-17.6387-.5175-6.7451-4.0117-10.1718-5.8789-17.2939-2.7676-10.5488,1.211-19.0225,7.7813-22.6543,14.7461-8.1484,22.832,3.6416,35.97,1.5557C45.1543,9.956,57.6054-6.4727,67.289-7.8565c8.2266-1.1748,13.834,4.669,15.045,14.0079S77.5937,21.4131,66.9433,20.1592Zm-42.1953.5185a4.15,4.15,0,1,0-4.15,4.15A4.1509,4.1509,0,0,0,24.748,20.6777ZM74.207,5.2871a1.73,1.73,0,1,0-1.73,1.73A1.73,1.73,0,0,0,74.207,5.2871Z"/><path class="cls-2" d="M130.2383,42.4678a1.3838,1.3838,0,1,1-1.3848-1.3838A1.3841,1.3841,0,0,1,130.2383,42.4678Z"/><path class="cls-5" d="M135.7715,4.0762a2.2491,2.2491,0,1,1-2.2481-2.2491A2.2482,2.2482,0,0,1,135.7715,4.0762Z"/><path class="cls-6" d="M52.2441,27.249a1.211,1.211,0,1,1-1.2109-1.2109A1.2119,1.2119,0,0,1,52.2441,27.249Z"/><path class="cls-6" d="M48.6113,95.7314a1.3828,1.3828,0,1,1-1.3828-1.3828A1.3845,1.3845,0,0,1,48.6113,95.7314Z"/><path class="cls-3" d="M133.1777,73.7685a1.21,1.21,0,1,1-1.2109-1.2089A1.212,1.212,0,0,1,133.1777,73.7685Z"/><path class="cls-7" d="M95.8887,91.6943A3.4083,3.4083,0,1,1,92.48,88.2861,3.41,3.41,0,0,1,95.8887,91.6943Z"/><path class="cls-3" d="M100.8691,131.5459a2.0967,2.0967,0,1,1-2.0976-2.0977A2.0963,2.0963,0,0,1,100.8691,131.5459Z"/><path class="cls-3" d="M62.0664,125.2529a1.5733,1.5733,0,1,1-1.5723-1.5742A1.5712,1.5712,0,0,1,62.0664,125.2529Z"/><circle class="cls-7" cx="133.1172" cy="11.2051" r="2.6211"/><circle class="cls-4" cx="123.1543" cy="46.0742" r="2.3594"/><path class="cls-5" d="M27.7226,52.6289A2.6218,2.6218,0,1,1,25.1,50.0068,2.6222,2.6222,0,0,1,27.7226,52.6289Z"/><path class="cls-4" d="M22.7407,45.55A1.3106,1.3106,0,1,1,21.43,44.2392,1.31,1.31,0,0,1,22.7407,45.55Z"/><path class="cls-3" d="M86.9746,97.4619A1.5733,1.5733,0,1,1,85.4,95.8877,1.573,1.573,0,0,1,86.9746,97.4619Z"/><path class="cls-4" d="M-14.93,69.792c-3.1914,4.68,1.0391,10.7207-1.3828,15.2168-2.4219,4.498-6.7441,5.0156-9.8574,2.5957-3.6348-2.8281-3.41-6.6426-8.3008-8.82C-40,76.3193-52.4556,81.0322-54.1861,71.5205c-.875-4.8106,2.375-8.5664,7.2637-9.6836,6.0528-1.3828,9.3516-.18,15.3906-3.1133C-25.479,55.7842-20.29,49.7305-9.395,46.6182,1.0112,43.6435,6.6772,48.1748,7.2065,52.4971,8.2436,60.9717-9.92,62.4463-14.93,69.792Zm-2.248-7.4375a2.2485,2.2485,0,0,0-2.2481-2.2481,2.25,2.25,0,0,0-2.248,2.2481,2.2484,2.2484,0,0,0,2.248,2.248A2.2472,2.2472,0,0,0-17.1782,62.3545Z"/><path class="cls-3" d="M12.0366,108.9717c0,17.166-14.5,25.5-27,22.832-10.2637-2.1895-12.834-17.332-16.668-26.166-3.7129-8.5567-8.832-22.5-20.166-22.5-11.1972,0-12.832,14.5-23.666,14.5-11,0-24.5-15.666-24.5-39.666,0-14.667,9.7988-31.4551,20.834-30.667,11.666.833,4.5,19.667,15.332,19.667,9.5,0,7.8574-16.2588,9.168-23.334,1.666-9,6.832-14.166,18.498-13.166,14.4434,1.2373,22.334,13.5,18.8711,23.3437-4.0293,11.4512-23.8691,17.3223-21.5371,30.49,1.3457,7.5917,13,11.998,26,16.166C1.7319,85.1279,12.0366,91.8037,12.0366,108.9717ZM-32.9146,33.1289a3.2852,3.2852,0,0,0,3.2852,3.2861,3.2869,3.2869,0,0,0,3.2871-3.2861,3.2869,3.2869,0,0,0-3.2871-3.2861A3.2852,3.2852,0,0,0-32.9146,33.1289ZM-79.6079,58.0322a1.73,1.73,0,0,0-1.7285-1.7305,1.7313,1.7313,0,0,0-1.7305,1.7305,1.73,1.73,0,0,0,1.7305,1.7285A1.728,1.728,0,0,0-79.6079,58.0322Zm17.4668,10.7207a3.8044,3.8044,0,0,0-3.8047-3.8047A3.8056,3.8056,0,0,0-69.75,68.7529a3.8056,3.8056,0,0,0,3.8047,3.8047A3.8044,3.8044,0,0,0-62.1411,68.7529Zm19.8886-15.5635a1.5562,1.5562,0,0,0-1.5566-1.5556,1.5562,1.5562,0,0,0-1.5566,1.5556,1.5562,1.5562,0,0,0,1.5566,1.5557A1.5562,1.5562,0,0,0-42.2525,53.1894ZM-12.61,107.8838a3.1737,3.1737,0,0,0-3.1738-3.1739,3.175,3.175,0,0,0-3.1738,3.1739,3.1737,3.1737,0,0,0,3.1738,3.1738A3.1724,3.1724,0,0,0-12.61,107.8838Z"/><path class="cls-3" d="M9.2554,88.7373c0-8.41-5.0782-15.2266-11.34-15.2266s-11.34,6.8164-11.34,15.2266c0,8.4082,5.0781,12.4414,11.34,12.4414S9.2554,97.1455,9.2554,88.7373Z"/></pattern><radialGradient id="radial-gradient" cx="320" cy="240.5" r="282.6307" gradientTransform="translate(0 -1.6857) scale(1 1.007)" gradientUnits="userSpaceOnUse"><stop offset="0" stop-color="#cce0f4"/><stop offset="0.0351" stop-color="#c4d7eb"/><stop offset="0.0935" stop-color="#afc0d1"/><stop offset="0.168" stop-color="#8c9aa7"/><stop offset="0.2557" stop-color="#5c656e"/><stop offset="0.3533" stop-color="#1f2225"/><stop offset="0.3998"/><stop offset="0.8652"/><stop offset="0.9944"/></radialGradient></defs><rect class="cls-8" width="640" height="480"/><path class="cls-9" d="M616,24V456H24V24H616M640,0H0V480H640V0Z"/><path class="cls-10" d="M616,1H589a12,12,0,0,0,0,24h27a12,12,0,0,0,0-24ZM562,1H535a12,12,0,0,0,0,24h27a12,12,0,0,0,0-24ZM508,1H481a12,12,0,0,0,0,24h27a12,12,0,0,0,0-24ZM454,1H427a12,12,0,0,0,0,24h27a12,12,0,0,0,0-24ZM400,1H373a12,12,0,0,0,0,24h27a12,12,0,0,0,0-24ZM346,1H319a12,12,0,0,0,0,24h27a12,12,0,0,0,0-24ZM292,1H265a12,12,0,0,0,0,24h27a12,12,0,0,0,0-24ZM238,1H211a12,12,0,0,0,0,24h27a12,12,0,0,0,0-24ZM184,1H157a12,12,0,0,0,0,24h27a12,12,0,0,0,0-24ZM130,1H103a12,12,0,0,0,0,24h27a12,12,0,0,0,0-24ZM76,1H49a12,12,0,0,0,0,24H76A12,12,0,0,0,76,1ZM12,15A12,12,0,0,0,0,27V54a12,12,0,0,0,24,0V27A12,12,0,0,0,12,15Zm0,54A12,12,0,0,0,0,81v27a12,12,0,0,0,24,0V81A12,12,0,0,0,12,69Zm0,54A12,12,0,0,0,0,135v27a12,12,0,0,0,24,0V135a12,12,0,0,0-12-12Zm0,54A12,12,0,0,0,0,189v27a12,12,0,0,0,24,0V189a12,12,0,0,0-12-12Zm0,54A12,12,0,0,0,0,243v27a12,12,0,0,0,24,0V243a12,12,0,0,0-12-12Zm0,54A12,12,0,0,0,0,297v27a12,12,0,0,0,24,0V297a12,12,0,0,0-12-12Zm0,54A12,12,0,0,0,0,351v27a12,12,0,0,0,24,0V351a12,12,0,0,0-12-12Zm0,54A12,12,0,0,0,0,405v27a12,12,0,0,0,24,0V405a12,12,0,0,0-12-12Zm42,63H27a12,12,0,0,0,0,24H54a12,12,0,0,0,0-24Zm54,0H81a12,12,0,0,0,0,24h27a12,12,0,0,0,0-24Zm54,0H135a12,12,0,0,0,0,24h27a12,12,0,0,0,0-24Zm54,0H189a12,12,0,0,0,0,24h27a12,12,0,0,0,0-24Zm54,0H243a12,12,0,0,0,0,24h27a12,12,0,0,0,0-24Zm54,0H297a12,12,0,0,0,0,24h27a12,12,0,0,0,0-24Zm54,0H351a12,12,0,0,0,0,24h27a12,12,0,0,0,0-24Zm54,0H405a12,12,0,0,0,0,24h27a12,12,0,0,0,0-24Zm54,0H459a12,12,0,0,0,0,24h27a12,12,0,0,0,0-24Zm54,0H513a12,12,0,0,0,0,24h27a12,12,0,0,0,0-24Zm54,0H567a12,12,0,0,0,0,24h27a12,12,0,0,0,0-24Zm34-44a12,12,0,0,0-12,12v27a12,12,0,0,0,24,0V424a12,12,0,0,0-12-12Zm0-54a12,12,0,0,0-12,12v27a12,12,0,0,0,24,0V370a12,12,0,0,0-12-12Zm0-54a12,12,0,0,0-12,12v27a12,12,0,0,0,24,0V316a12,12,0,0,0-12-12Zm0-54a12,12,0,0,0-12,12v27a12,12,0,0,0,24,0V262a12,12,0,0,0-12-12Zm0-54a12,12,0,0,0-12,12v27a12,12,0,0,0,24,0V208a12,12,0,0,0-12-12Zm0-54a12,12,0,0,0-12,12v27a12,12,0,0,0,24,0V154a12,12,0,0,0-12-12Zm0-54a12,12,0,0,0-12,12v27a12,12,0,0,0,24,0V100a12,12,0,0,0-12-12Zm0-54a12,12,0,0,0-12,12V73a12,12,0,0,0,24,0V46a12,12,0,0,0-12-12Z"/><path class="cls-9" d="M604.429,9h-27a12,12,0,0,0,0,24h27v19.64a12,12,0,1,0,24,0V33a12,12,0,0,0-12-12h0a12,12,0,0,0-12-12Zm-54,0h-27a12,12,0,1,0,0,24h27a12,12,0,1,0,0-24Zm-54,0h-27a12,12,0,0,0,0,24h27a12,12,0,1,0,0-24Zm-54,0h-27a12,12,0,0,0,0,24h27a12,12,0,1,0,0-24Zm-54,0h-27a12,12,0,0,0,0,24h27a12,12,0,1,0,0-24Zm-54,0h-27a12,12,0,0,0,0,24h27a12,12,0,1,0,0-24Zm-54,0h-27a12,12,0,0,0,0,24h27a12,12,0,1,0,0-24Zm-54,0h-27a12,12,0,0,0,0,24h27a12,12,0,1,0,0-24Zm-54,0h-27a12,12,0,0,0,0,24h27a12,12,0,0,0,0-24Zm-54,0h-27a12,12,0,0,0,0,24h27a12,12,0,1,0,0-24Zm-54,0h-27a12,12,0,0,0,0,24h27a12,12,0,0,0,0-24ZM24.26,46.8306a12,12,0,0,0-12,12v27a12,12,0,0,0,24,0v-27a12,12,0,0,0-12-12Zm0,54a12,12,0,0,0-12,12v27a12,12,0,0,0,24,0v-27a12,12,0,0,0-12-12Zm0,54a12,12,0,0,0-12,12v27a12,12,0,0,0,24,0v-27a12,12,0,0,0-12-12Zm0,54a12,12,0,0,0-12,12v27a12,12,0,0,0,24,0v-27a12,12,0,0,0-12-12Zm0,54a12,12,0,0,0-12,12v27a12,12,0,0,0,24,0v-27a12,12,0,0,0-12-12Zm0,54a12,12,0,0,0-12,12v27a12,12,0,0,0,24,0v-27a12,12,0,0,0-12-12Zm0,54a12,12,0,0,0-12,12v27a12,12,0,0,0,24,0v-27a12,12,0,0,0-12-12Zm0,54a12,12,0,0,0-12,12v9.82a24,24,0,0,0,24,24H53.44a12,12,0,0,0,0-24H36.26v-9.82a12,12,0,0,0-12-12Zm83.18,21.82h-27a12,12,0,1,0,0,24h27a12,12,0,0,0,0-24Zm54,0h-27a12,12,0,1,0,0,24h27a12,12,0,0,0,0-24Zm54,0h-27a12,12,0,1,0,0,24h27a12,12,0,0,0,0-24Zm54,0h-27a12,12,0,1,0,0,24h27a12,12,0,1,0,0-24Zm54,0h-27a12,12,0,0,0,0,24h27a12,12,0,1,0,0-24Zm54,0h-27a12,12,0,0,0,0,24h27a12,12,0,1,0,0-24Zm54,0h-27a12,12,0,0,0,0,24h27a12,12,0,1,0,0-24Zm54,0h-27a12,12,0,0,0,0,24h27a12,12,0,1,0,0-24Zm54,0h-27a12,12,0,1,0,0,24h27a12,12,0,0,0,0-24Zm54,0h-27a12,12,0,0,0,0,24h27a12,12,0,1,0,0-24Zm22.9891-55.0109a12,12,0,0,0-12,12v27a12,12,0,1,0,24,0v-27a12,12,0,0,0-12-12Zm0-54a12,12,0,0,0-12,12v27a12,12,0,0,0,24,0v-27a12,12,0,0,0-12-12Zm0-54a12,12,0,0,0-12,12v27a12,12,0,0,0,24,0v-27a12,12,0,0,0-12-12Zm0-54a12,12,0,0,0-12,12v27a12,12,0,0,0,24,0v-27a12,12,0,0,0-12-12Zm0-54a12,12,0,0,0-12,12v27a12,12,0,1,0,24,0v-27a12,12,0,0,0-12-12Zm0-54a12,12,0,0,0-12,12v27a12,12,0,1,0,24,0v-27a12,12,0,0,0-12-12Zm0-54a12,12,0,0,0-12,12v27a12,12,0,1,0,24,0v-27a12,12,0,0,0-12-12Z"/><path class="cls-9" d="M320,55a186.7226,186.7226,0,0,0-30.8557,2.5655,12,12,0,1,0,3.9595,23.6711c1.2379-.2082,2.4685-.4,3.7158-.58l.0078-.0012.1963-.0281.01-.0014.0909-.013.02-.0029.0893-.0127.01-.0014.0814-.0115.0227-.0032.0846-.0119.0241-.0033.0783-.011.0227-.0032.0737-.01.0319-.0044.0781-.0109.0319-.0044.0591-.0081.0467-.0064.0588-.0081.0386-.0053.0672-.0092.0491-.0067.0415-.0056.0669-.0091.0444-.006.05-.0067.0329-.0044.0805-.0108.0331-.0044.0837-.0112.0294-.0039.0538-.0072.0219-.0029.0984-.013.019-.0025.18-.0236.0027,0,.119-.0156.0074-.0009.1852-.024.0025,0q6.2271-.8015,12.5965-1.1223l.0047,0c.106-.0053.2127-.01.3188-.0156h.0015c.1707-.0082.3408-.0161.5116-.0237l.0079,0,.1223-.0054.0021,0,.1882-.0082.0108,0c.1023-.0044.2042-.0087.3066-.0128l.0187-.0008.1156-.0047.005,0,.06-.0024.0145-.0006.1071-.0042.02-.0007.1-.0038.0228-.0009.0551-.0021.0261-.001.0945-.0035.0248-.0009.1754-.0064.0292-.001.0839-.003.038-.0013.05-.0017.0593-.0021.0587-.0019.0358-.0012.0768-.0026.04-.0013.0489-.0016.06-.002.0549-.0017.0422-.0014.075-.0023.04-.0012.0484-.0015.0631-.0019.05-.0015.0486-.0015.0519-.0015.0619-.0018.0431-.0013.0646-.0018.0481-.0013.0527-.0015.0391-.0011.0765-.002.0385-.0011.0635-.0016.0476-.0013.06-.0015.0328-.0009.08-.002.0363-.0009.0649-.0016.0445-.001.06-.0015.0385-.0009.0774-.0018.0354-.0008.0652-.0014.0374-.0009.0691-.0015.0352-.0007.0788-.0017.0359-.0007.0616-.0013.0375-.0008.0743-.0014.032-.0007.0843-.0016.0251-.0005.0706-.0013.0268-.0005.0847-.0015.0282-.0005.0866-.0015.0227,0,.0748-.0012.0233,0,.0873-.0014.0266,0,.0886-.0014.0152,0,.0826-.0012.02,0,.09-.0013.0231,0,.0917-.0012.01,0,.0876-.0011.0188,0,.0907-.0011.0228,0,.0858-.001.0127,0,.0859-.0009.027,0,.088-.0009.0211,0,.083-.0007.0146,0,.09-.0008.0242,0,.0888-.0007.0222,0,.08-.0006.0159,0,.0916-.0006.0215,0,.0922-.0005.0157,0,.085,0,.0166,0,.0935,0,.0179,0,.0957,0,.0076,0,.0938,0h.0119l.0948,0,.019,0,.0957,0h.0044l.0938,0,.0162,0,.0939,0H320a11.9458,11.9458,0,0,0,6.4331-1.8683A11.9418,11.9418,0,0,0,332.7,79.4935q.9929.0775,1.9823.167h.001l.188.0172.0079.0007.1109.01.0159.0014.177.0165.0253.0024.0928.0087.0282.0027.0524.0049.0679.0065.0449.0042.05.0048.0589.0056.0511.005.042.004.0738.0072.0387.0037.0612.006.0447.0044.0633.0062.034.0034.0773.0076.036.0036.08.008.0161.0016.0815.0082.0213.0021.0907.0092.0174.0017.0946.01.0073.0007.0933.01.0114.0011.0949.01.0159.0016.1966.0205.01.001.0976.01.011.0012.1.01.0007,0,.102.0108.0051.0006.1.0106.01.0011.2053.0221.0017,0,.1028.0112.005.0006a160.3436,160.3436,0,0,1,21.6454,3.88,12,12,0,0,0,5.8168-23.2845,185.2337,185.2337,0,0,0-30.5911-4.99c-.3174-.0248-.6335-.037-.9466-.037a11.9388,11.9388,0,0,0-6.42,1.87A11.9482,11.9482,0,0,0,320,55Zm-56.9508,9.5931a11.9815,11.9815,0,0,0-3.9494.6717,184.6933,184.6933,0,0,0-28.3182,12.6361,12,12,0,1,0,11.5889,21.0166l.0307-.0169.01-.0055.0957-.0527.0067-.0036c.0876-.0482.1759-.0967.2636-.1447l0,0,.1054-.0577.0018-.001q.1329-.0728.266-.1451l.001-.0005.1022-.0556.0056-.003q5.56-3.0205,11.3757-5.609l.0029-.0014.1073-.0476.0045-.002.1065-.0472.0042-.0019.1637-.0724.0112-.0049.0932-.0412.0175-.0077.0958-.0422.0112-.0049.0511-.0224.02-.0088.0846-.0371.0264-.0116.0751-.0329.031-.0135.08-.0349.0237-.01.0492-.0215.0239-.01.08-.0349.0271-.0118.0791-.0344.0247-.0108.049-.0212.0364-.0158.0664-.0288.0349-.0151.065-.0281.04-.0172.0464-.02.0557-.0241.0439-.0189.0581-.025.0408-.0175.0439-.0189.056-.0241.0468-.02.0376-.0162.0654-.028.0386-.0165.053-.0226.0434-.0185.0547-.0234.0309-.0132.07-.03.0329-.014.0708-.03.0293-.0125.0622-.0263.0291-.0124.0683-.0289.0251-.0106.0757-.032.0275-.0116.0725-.0306.029-.0122.06-.0253.0256-.0108.0739-.0311.0286-.012.0755-.0316.0241-.01.0732-.0307.021-.0088.0745-.0311.0169-.0071.0824-.0344.0193-.008.083-.0346.0136-.0057.08-.0333.0116-.0048.0853-.0354.0153-.0064.0853-.0353.0145-.006.088-.0364.0051-.0021.0877-.0361.0089-.0037.0878-.0362.0136-.0056.0879-.0361.0094-.0039.1844-.0756.0086-.0035.0928-.0379.0039-.0016c.0946-.0387.1948-.0794.29-.1179l.0038-.0015c.1279-.052.2612-.1059.3893-.1575l.0024-.001q3.5428-1.4277,7.1637-2.6894a12.0021,12.0021,0,0,0-3.97-23.3276ZM212.4546,92.4752a11.9487,11.9487,0,0,0-7.4569,2.6048,186.4931,186.4931,0,0,0-22.557,21.2149,12,12,0,0,0,17.82,16.0766q1.953-2.1715,3.9767-4.2643l0,0,.0713-.0737.0044-.0045c.07-.0723.1434-.148.2136-.22l.0073-.0075.0649-.0668.0124-.0128.064-.0657.009-.0092.06-.0612.0106-.0108.061-.0625.0176-.018.0552-.0564.0252-.0258.0476-.0487.0285-.029.04-.0407.03-.0308.0448-.0457.0276-.0281.0485-.0494.0328-.0333.0282-.0287.0506-.0513.0255-.026.0569-.0577.02-.0206.1192-.1207.0117-.0119.07-.0712.0113-.0114a161.91,161.91,0,0,1,14.3194-12.8353,12,12,0,0,0-7.4725-21.3961ZM173.8571,135.397a11.9909,11.9909,0,0,0-10.1424,5.57,185.0726,185.0726,0,0,0-14.36,27.4737,12,12,0,0,0,22.12,9.3109q1.8525-4.4149,3.9547-8.6889l.0009-.002.0446-.0906.0035-.0071.0444-.09.0014-.0029.0884-.1789.0069-.0139.0407-.0822.0079-.0158.0408-.0824.0054-.0108.0407-.082.0037-.0074.0413-.0829.0086-.0173.04-.08.0083-.0167.04-.079.008-.016.0367-.0734.0073-.0146.0394-.0786.0111-.0222.0384-.0766.01-.0193.0337-.0672.0147-.0291.0328-.0652.0117-.0231.0379-.0752.0118-.0235.0375-.0742.0119-.0236.03-.0595.0146-.0289.0336-.0663.0148-.0293.0352-.0692.0146-.0288.0327-.0642.0173-.0342.0257-.05.0219-.0429.0285-.056.0176-.0345.033-.0646.0173-.0338.0291-.0568.0183-.0356.0265-.0519.018-.035.0325-.0633.019-.0369.0267-.052.0257-.05.0191-.0371.032-.062.0183-.0355.0341-.066.0173-.0334.0242-.0468.0131-.0254.0392-.0756.0136-.0263.04-.0772.0112-.0217.0255-.0491.0062-.0118.047-.09.01-.02.0447-.0857.0083-.0159q.0683-.1307.1365-.2609l.0028-.0054.0543-.1035.0008-.0016c.0462-.088.0928-.1764.1391-.2643l.0053-.01q3.0123-5.7088,6.4614-11.14a12.0022,12.0022,0,0,0-10.12-18.4329Zm-22.3746,53.2706a12.0045,12.0045,0,0,0-11.6777,9.2847,185.5062,185.5062,0,0,0-4.46,30.6665,12,12,0,0,0,11.25,12.7063q.3718.0227.74.0225A12,12,0,0,0,159.3,230.0906q.273-4.4983.79-8.9255l0,0c.0122-.1053.0245-.21.037-.3151l0-.0006c.0249-.21.05-.4186.0757-.6287l0-.0034c.0128-.1051.0249-.2031.038-.3081l.0013-.0105.0256-.2047h0l.0129-.1021.0007-.0057c.0133-.1049.0258-.2025.0392-.3074l.0011-.0085.013-.1,0-.0012.0133-.1021,0-.0027.0131-.1007.0009-.0068.0132-.1007,0-.0021.0135-.103,0,0,.013-.0988.0015-.0114.0131-.0988,0-.001.0137-.1031,0-.0014.0131-.0976.0019-.0136.0128-.0956.001-.0073.0131-.0965.0006-.0041.0133-.0975.0015-.0116.0133-.097.0009-.0063.0131-.0957.0009-.0065.0135-.0974.0015-.0107.0136-.0981,0-.0032.0142-.102v0l.0136-.097.0021-.0148.0135-.096.0005-.0036.0138-.0975.0009-.0065.0136-.0955.002-.0139.0137-.0955.0009-.0066.0138-.096.0007-.0052.0137-.0946.0023-.0163.0135-.0931.0015-.01.0129-.0884.0019-.0127.0136-.093.0022-.015.0138-.0942.0012-.0083.0139-.0942.0009-.0059.0138-.0933.0027-.0184.0138-.0926.0012-.0077.0138-.092.0015-.01.0141-.0941.0021-.0141.0142-.0939.0016-.01.0142-.094.0006-.0038.0148-.0974.0017-.0111.0148-.0969.0009-.0057.0143-.0932.0016-.01.0143-.0928.0026-.0166.0144-.093.0013-.0087.0144-.0925.0012-.0073.0141-.0907.0035-.0225.014-.0886.002-.0129.0137-.0872.0019-.0115.0148-.094.0021-.0131.0151-.095.0012-.0075.0151-.0944.0009-.0057.0151-.0945.0025-.0152.015-.0934.0016-.01.0143-.0885.002-.0123.015-.0927.0025-.0149.0151-.0931.0017-.01.0152-.0927.0008-.005.0154-.0935.0029-.0177.0152-.092.0015-.0089.015-.0907.0017-.01.0153-.0923.0028-.0168.0151-.09.0026-.0156.014-.0834.0021-.0126.0153-.0906.0031-.0182.0155-.0917.0017-.01.0147-.0872.0024-.0139.0157-.0923.0025-.0141.016-.0938.0014-.0081.0166-.0966,0-.0016.0164-.0948.0028-.0163.016-.0923.0017-.01.0157-.0907.0015-.0088.0164-.0935.0025-.0146.0164-.0939.0013-.007.0163-.093.0014-.0075.0165-.0941.0025-.0141.0164-.0925.0022-.012.0153-.0864.0022-.0124.0168-.0938.0021-.0117.017-.0951.0013-.007.0167-.0929.0013-.0075.0167-.0925.0031-.017.0166-.0919.0016-.0084.0166-.0917.0016-.0084.0172-.0944.0022-.0122.0175-.0954.001-.0053.0172-.0937.0015-.0079.0172-.0936.0025-.0136.0176-.0948.001-.0056.0174-.0934.0015-.0081.0175-.0937.0027-.0144.0173-.0926.0017-.009.0176-.0933.0009-.0047.0175-.0932.0032-.0167.0174-.0919.0016-.0083.0174-.092.0015-.0075.0184-.0964.0015-.0083c.02-.1028.038-.1982.0578-.301l.0012-.0061.0385-.1985.0011-.0057.0191-.0982.0011-.0055c.02-.1027.039-.2.0593-.3025l.001-.0051c.02-.1026.04-.2007.06-.3033l.0009-.004c.02-.1026.04-.2021.0609-.3046l0-.0015c.0412-.205.0826-.4086.1246-.6133l0-.0006c.042-.2046.0841-.4078.1268-.6122l0-.002c.0214-.1022.0425-.2027.0641-.3048l0-.0012c.0216-.1021.0426-.2009.0644-.3029l.0011-.0055c.0218-.102.043-.2007.0649-.3026l0-.0012c.0659-.3059.132-.6084.2-.9137l.0011-.0048c.0451-.2036.09-.4042.1358-.6074l0,0c.0769-.34.1539-.6768.2329-1.0163a12.01,12.01,0,0,0-11.699-14.719Zm-3.5107,57.6305a12.1335,12.1335,0,0,0-1.27.0668,12,12,0,0,0-10.6784,13.19,184.905,184.905,0,0,0,5.821,30.4523,12,12,0,1,0,23.11-6.4752l-.0068-.0244-.0144-.0513-.01-.0372-.0194-.0694-.0111-.04-.0149-.0538-.0151-.0542-.012-.0433-.0134-.0481-.0162-.0587-.0123-.0444-.0116-.042-.0188-.068-.01-.0348-.0233-.0846-.0058-.0212-.015-.0548-.0041-.0148-.0267-.0976-.0052-.0189-.0271-.0991-.0038-.0141-.0154-.0563-.0006-.0022-.0309-.1139-.0028-.01-.0285-.1052-.0032-.0119q-2.0686-7.6445-3.3919-15.5769l-.0015-.009-.03-.1818-.0007-.004-.0187-.1138-.0023-.0142-.0294-.18,0-.0014-.0189-.116-.0022-.0137-.0288-.1783-.002-.0127-.0167-.104-.0034-.0212-.0156-.0974-.0033-.0205-.0091-.0574-.001-.0065-.0173-.1089-.0034-.0219-.0152-.0965-.0033-.0209-.0088-.0559-.003-.0191-.0146-.0936-.0053-.0338-.0127-.0815-.0049-.0319-.0083-.0536-.002-.0123-.0155-.1009-.0049-.0318-.0125-.0809-.0054-.0354-.0071-.0467-.0106-.069-.0069-.0455-.0063-.0413-.011-.0729-.0059-.0389-.0074-.0489-.01-.0663-.007-.0467-.0062-.0419-.0106-.07-.0058-.039-.008-.0538-.0089-.06-.0073-.05-.0061-.0414-.01-.0681-.0067-.0457-.0063-.0425-.01-.0711-.0063-.043-.0073-.05-.009-.0619-.0066-.0455-.006-.0419-.01-.071-.0062-.0426-.0082-.0574-.0078-.0543-.0069-.0479-.0081-.0573-.0079-.0548-.0062-.0439-.0095-.067-.006-.0424-.0075-.0535-.0058-.041-.01-.0688-.0054-.039-.0106-.0753-.0049-.0355-.0078-.0555-.0069-.05-.0084-.0609-.0054-.0394-.01-.072-.0057-.0419-.0074-.0541-.0054-.0392-.0094-.0692-.0051-.037-.01-.0763-.0047-.0345-.008-.0593-.0066-.0488-.0083-.062-.0044-.0326-.0107-.0805-.0043-.0316-.0087-.0654-.0056-.0422-.0079-.06-.0051-.0389-.01-.0742-.005-.0381-.0083-.0638-.0052-.04-.0087-.0664-.0041-.032-.01-.0772-.0048-.0368-.0095-.0738-.0039-.03-.0082-.0638-.0044-.0344-.01-.0782-.0042-.0329-.0089-.0706-.0053-.0419-.0076-.06-.0042-.0335-.01-.0778-.0044-.0354-.01-.0776-.004-.0318-.0075-.06-.004-.0326-.01-.0786-.0043-.0346-.01-.0779-.0041-.0338-.0073-.06-.0045-.0365-.0087-.0718-.0048-.04-.0093-.0768-.0039-.0324-.007-.0583-.0054-.0452-.0079-.0654-.0044-.0376-.0089-.0747-.0047-.0391-.0068-.0581-.0047-.0393-.0081-.07-.0043-.0366-.0089-.0753-.0047-.04-.0056-.0489-.007-.06-.0062-.053-.0045-.04-.0086-.0748-.0043-.0376-.0068-.0594-.0058-.0509-.0063-.0551-.0047-.0414-.0082-.0729-.0046-.0408-.0058-.0519-.0067-.06-.0057-.0509-.0044-.04-.0079-.071-.0052-.0471-.0048-.0436-.0076-.0692-.0047-.0424-.007-.0646-.0055-.05-.0053-.0483-.0044-.0411-.0081-.0749-.0039-.036-.0094-.0883-.0027-.025-.006-.0559-.0026-.0246-.01-.0932-.0028-.0268-.0041-.039a12.002,12.002,0,0,0-11.92-10.7453Zm15.5691,55.6262a12.0053,12.0053,0,0,0-10.8382,17.1364,185.3662,185.3662,0,0,0,15.5631,26.8019,12,12,0,0,0,19.6725-13.7474l-.14-.2-.003-.0042-.0612-.088-.0116-.0168-.0543-.078-.0121-.0175-.0309-.0445-.0358-.0516-.028-.0405-.02-.0295-.0424-.0613-.0211-.03-.0414-.06-.0224-.0324-.027-.0391-.038-.0551-.0238-.0347-.03-.0441-.0309-.0448-.0284-.0413-.023-.0335-.0419-.061-.0195-.0284-.0428-.0625-.0191-.0278-.04-.0581-.0133-.0195-.0423-.0618-.018-.0263-.0442-.0648-.0169-.0247-.0462-.0677-.0133-.02-.0441-.0647-.0082-.012-.0494-.0727-.0131-.0193-.0489-.072-.0106-.0157-.0516-.0761-.0052-.0075-.0522-.0772-.0043-.0063-.0529-.0782-.0083-.0123-.0529-.0784-.0059-.0087-.0547-.0812-.002-.0028-.0538-.08-.0052-.0076-.0522-.0777-.0091-.0135-.052-.0775-.0063-.0094-.0543-.081-.0009-.0012-.0543-.0812-.0053-.0079-.0521-.078-.0091-.0135-.0526-.0787-.0035-.0054-.1123-.1685-.0034-.0051-.0545-.082-.0052-.0077c-.0559-.0842-.114-.1718-.17-.2561l-.0031-.0046-.0553-.0836-.0033-.005c-.0752-.1138-.1545-.2342-.2294-.3482l0-.0007c-.0582-.0887-.1136-.1732-.1716-.2619l-.002-.003-.0553-.0846-.0036-.0054-.1126-.1727,0,0-.0572-.0879,0,0c-.0771-.1185-.1519-.2339-.2287-.3526l0,0c-.1316-.2036-.2668-.4136-.3975-.6178l-.0017-.0026-.0557-.0871,0-.0008-.1114-.1745-.0024-.0037-.0539-.0846-.0037-.0059-.0541-.085-.0014-.0022-.1108-.1746-.0017-.0026-.0547-.0864-.0021-.0032c-.054-.0854-.1118-.1769-.1657-.2624l-.0032-.0052-.0522-.0829-.0057-.009-.1086-.1729,0,0-.0549-.0875-.0016-.0027-.054-.0861-.003-.0049-.1082-.1732-.0024-.0038-.053-.0849-.0036-.0059-.0529-.0849-.003-.0049-.107-.1722-.0032-.0052-.0519-.0837-.0051-.0084-.0517-.0834-.0031-.005-.1054-.1708-.0053-.0085-.0523-.085-.0019-.0031-.0539-.0874-.0009-.0017-.1055-.1716-.007-.0116-.05-.0813-.0051-.0083-.0518-.0846-.0012-.0021-.051-.0834-.0045-.0073-.0484-.0795-.0095-.0156-.048-.0789-.0057-.0093-.1034-.17-.0038-.0063-.0488-.08-.0087-.0144-.0479-.079-.0068-.0114-.0482-.08-.0029-.0047-.0485-.08-.0083-.0139-.0457-.0756-.0119-.02-.0455-.0756-.0078-.0131-.0446-.0741-.0056-.0093-.0474-.0791-.0088-.0147-.0458-.0765-.0112-.0186-.0455-.0761-.0079-.0132-.0424-.071-.0088-.0147-.0444-.0745-.0126-.0212-.0428-.0718-.0139-.0233-.0437-.0734-.0069-.0118-.0417-.07-.01-.0169-.0443-.0747-.012-.02-.0429-.0726-.0127-.0214-.0418-.0706-.01-.0166-.0394-.0668-.0137-.0233-.0416-.0706-.0145-.0245-.0408-.0693-.0152-.0259-.0357-.0607-.0126-.0215-.0383-.0654-.0161-.0273-.04-.0677-.0159-.0272-.0389-.0664-.0171-.0293-.0316-.054-.0177-.03-.0363-.0623-.0173-.03-.038-.0652-.0179-.0309-.0317-.0544-.0243-.042-.027-.0463-.017-.0295-.0383-.0659-.0176-.03-.0382-.066-.0175-.03-.0308-.0532-.023-.04-.031-.0537-.0156-.027-.0388-.0674-.0165-.0287-.0392-.0682-.0162-.0282-.0285-.05-.0265-.0462-.0274-.0477-.018-.0314-.0374-.0654-.0178-.031-.0379-.0664-.0161-.0281-.03-.0522-.0236-.0413-.0291-.0512-.0191-.0334-.036-.0632-.02-.0345-.03-.0531-.0245-.0431-.0243-.0427-.028-.0495-.0253-.0446-.0225-.04-.0331-.0586-.0209-.037-.0267-.0472L179.6819,319l-.0235-.0416-.026-.0461-.0292-.0519-.0206-.0366-.0333-.0592-.0224-.04-.0222-.0394-.0308-.0551-.0219-.039-.0237-.0423-.032-.0573-.02-.0349-.0328-.0588-.0228-.0408-.0222-.04-.0318-.0569-.0218-.0392-.0271-.0487-.0269-.0483-.0232-.0418-.0253-.0455-.0286-.0516-.02-.0353-.0354-.0638-.018-.0325-.0235-.0426-.032-.0579-.0222-.04-.0232-.042-.0292-.0528-.0238-.0433-.0287-.0522-.0231-.0419-.023-.0418-.0324-.059-.02-.0369-.0241-.0439-.0286-.0522-.024-.0438-.018-.0329-.0342-.0624-.0206-.0378-.0343-.0628-.0175-.0322-.0279-.0511-.0239-.0438-.0279-.0514-.0163-.03-.0369-.0679-.0166-.03-.0364-.0671-.0161-.03-.0273-.05-.0238-.0439-.0271-.05-.0183-.0339-.0347-.0642-.018-.0334-.0341-.0632-.0178-.0331-.0271-.05-.0215-.04-.0308-.0574-.017-.0315-.0353-.0659-.0166-.0311-.0379-.0706-.01-.0191-.0327-.0612-.0136-.0253-.037-.0694-.0154-.0289-.0365-.0683-.0163-.0305-.0314-.0591-.0171-.0321-.0323-.0609-.0133-.0249-.038-.0715-.0137-.026-.038-.0717-.0135-.0255-.0349-.0659-.01-.0193-.0367-.07-.0125-.0238-.0381-.0722-.014-.0265-.0375-.0713-.0135-.0256-.0323-.0614-.0129-.0247-.0365-.07-.013-.0247-.0391-.0746-.0109-.0208-.04-.0774-.0077-.0146-.04-.0771-.0045-.0087-.0428-.0819-.0085-.0164-.0426-.0817-.0062-.0119-.0441-.085-.0039-.0075-.043-.0827-.0043-.0084-.0441-.0852-.006-.0115-.0447-.0864-.0027-.0053-.0952-.1845,0,0-.0475-.0922-.0018-.0035q-1.2123-2.3571-2.3507-4.7626a12.0014,12.0014,0,0,0-10.8463-6.8513Zm33.0767,47.3438A12,12,0,0,0,188.06,369.68a186.4014,186.4014,0,0,0,23.4727,20.2,12,12,0,0,0,14.0844-19.4327l-.0833-.06-.0033-.0024-.0805-.0585-.0072-.0052-.0818-.06-.0008-.0006c-.0855-.0622-.169-.1231-.2545-.1856l-.0022-.0016c-.1139-.0833-.2259-.1653-.34-.2489h0q-2.34-1.7193-4.6153-3.5207l-.0016-.0013c-.1935-.1532-.3836-.3044-.5764-.4585l-.0014-.0011-.0805-.0644-.0028-.0022-.0793-.0635-.0046-.0037-.16-.128-.0034-.0027-.0788-.0634-.0044-.0035-.2393-.1929-.0075-.0061-.0755-.061-.0079-.0064-.0763-.0617-.0048-.004-.1555-.126-.0087-.0071-.0745-.06-.0087-.0071-.0749-.0609-.0069-.0056-.1513-.1234-.0122-.01-.072-.0588-.01-.0086-.0735-.06-.0084-.0068-.0756-.062-.0005,0-.0739-.0606-.013-.0107-.07-.0573-.0141-.0116-.0705-.058-.0106-.0087-.0687-.0565-.0071-.0059-.07-.0576-.0158-.0129-.0685-.0566-.0153-.0127-.0679-.0561-.0149-.0124-.064-.0529-.01-.0084-.0671-.0556-.02-.0161-.0655-.0545-.0179-.0148-.0656-.0545-.0177-.0147-.0572-.0476-.0152-.0127-.0621-.0518-.0254-.0211-.0605-.0506-.0218-.0181-.06-.05-.0252-.0211-.0487-.0407-.0247-.0207-.0564-.0473-.0281-.0235-.0567-.0475-.0276-.0232-.05-.0419-.0359-.03-.0371-.0312-.0482-.0406-.0336-.0283-.0372-.0313-.05-.0423-.0337-.0284-.0394-.0333-.0433-.0366-.0387-.0327-.0444-.0376-.037-.0313-.0367-.0311-.0494-.0419-.0355-.03-.0317-.0269-.0538-.0457-.0288-.0245-.0561-.0477-.0268-.0228-.0417-.0355-.0029-.0025-.0823-.07-.0217-.0185-.0661-.0564-.02-.0167-.0711-.0609-.0149-.0128-.1337-.1145-.003-.0026-.0879-.0754-.003-.0026c-.0754-.0648-.1517-.13-.227-.1954l-.0017-.0015-.0867-.0748-.0064-.0055q-4.3842-3.7863-8.4872-7.877l-.0073-.0073-.0776-.0774-.0055-.0055-.076-.076-.0082-.0081-.0367-.0368-.0194-.0194-.0622-.0622-.0189-.019-.0566-.0568-.0243-.0243-.0362-.0364-.0448-.045-.0326-.0328-.0294-.03-.0509-.0512-.0263-.0265-.0427-.0431-.0387-.039-.0284-.0287-.0509-.0514-.0259-.0262-.0461-.0467-.0283-.0285-.0423-.0429-.0233-.0236-.0537-.0545-.0236-.0239-.0547-.0555-.0221-.0225-.0507-.0515-.01-.01a11.9635,11.9635,0,0,0-8.5585-3.5879ZM243.39,383.1454a12.0018,12.0018,0,0,0-5.33,22.7583,184.4677,184.4677,0,0,0,28.8589,11.3618,12,12,0,0,0,6.9026-22.9861,159.7325,159.7325,0,0,1-20.2871-7.5961l-.0008,0-.09-.0411-.01-.0046-.0889-.04-.0041-.002-.0893-.0406-.0048-.0022-.0869-.04-.0126-.0058-.0866-.04-.0089-.004-.1787-.082-.01-.0047-.0835-.0383-.0171-.0079-.0807-.0372-.018-.0083-.0718-.0331-.0158-.0073-.0761-.0352-.0257-.0118-.0746-.0346-.0237-.011-.0724-.0336-.0247-.0114-.062-.0288-.0256-.0119-.0708-.033-.0312-.0145-.07-.0326-.028-.0131-.056-.0261-.0437-.02-.05-.0234-.038-.0178-.0614-.0288-.0426-.02-.0391-.0184-.06-.0284-.0367-.0172-.0576-.0271-.0436-.0206-.0433-.02-.0347-.0163-.07-.0332-.0271-.0128-.0769-.0364-.0253-.0119-.0923-.0437-.01-.005-.0508-.0241-.0145-.0069-.0946-.045-.01-.0047c-.09-.0429-.1792-.0854-.2693-.1285l-.0035-.0016q-.9716-.4646-1.9361-.9417a11.9513,11.9513,0,0,0-5.312-1.2469Zm55.3267,16.5578a12.0006,12.0006,0,0,0-1.4462,23.9119A187.3523,187.3523,0,0,0,320,425c2.7225,0,5.4785-.06,8.1914-.1785a12,12,0,0,0-.5146-23.9888c-.1734,0-.3466.0037-.5216.0111-2.04.0893-4.0842.1405-6.1435.1531h-.0052l-.1078.0006-.0048,0-.2142.001h-.0112l-.1032,0-.01,0-.1048,0h-.0054l-.1018,0-.0093,0-.1007,0h-.0162l-.0995,0h-.207l-.0586,0h-.0208l-.054,0h-.0212l-.0575,0h-.0163l-.0744,0h-.0029l-.07,0h-.0223l-.0513,0-.0254,0-.0479,0-.0268,0-.0485,0-.0251,0-.0712,0-.0156,0-.0562,0-.0268,0-.0471,0-.0282,0-.0465,0-.0253,0-.0531,0-.0213,0-.0719-.0005-.017,0-.0526,0-.0321,0-.0428,0-.0284,0-.0468,0-.0264,0-.0586-.0006-.0133,0-.0736-.0007-.0161,0-.0554-.0006-.027,0-.0459,0-.0287,0-.0478,0-.0238,0-.06-.0007-.0138,0-.0727-.0009-.0172,0-.0558-.0006-.0228,0-.052-.0007-.023,0-.0523-.0007-.0216,0-.07-.0009h-.0031l-.0728-.0011-.0211,0-.0516-.0007-.0259,0-.0462-.0007-.0289,0-.0518-.0009-.0184,0-.0737-.0012-.0067,0-.0667-.0011-.02,0-.0532-.0009-.0239,0-.05-.0009-.0241,0-.0533-.0009-.02,0-.0732-.0013-.0064,0-.0661-.0012-.0219,0-.0514-.001-.0242,0-.049-.001-.026-.0005-.0579-.0012-.0129,0-.0739-.0016-.0138,0-.059-.0012-.0234-.0005-.05-.0011-.0234,0-.0518-.0012-.0232,0-.0538-.0012-.0194,0-.0711-.0016-.02,0-.0537-.0012-.0243-.0006-.0492-.0012-.025-.0006-.05-.0013-.0229,0-.1457-.0037-.0171,0-.0556-.0015-.0242-.0006-.0477-.0013-.0269-.0007-.0519-.0014-.02-.0006-.1464-.004-.0187,0-.0536-.0016-.0255-.0007-.0485-.0014-.0242-.0007-.0527-.0016-.0206-.0006-.0725-.0021-.0051,0-.0651-.002-.03-.0009-.0423-.0013-.03-.0009-.0466-.0015-.0241-.0007-.0537-.0017-.02-.0007-.0717-.0023-.0118,0-.06-.002-.0234-.0007-.0495-.0017-.0265-.0008-.0458-.0016-.0278-.001-.05-.0017-.0218-.0007-.0723-.0025-.0118,0-.059-.0021-.0277-.001-.0437-.0015-.0307-.0011-.0439-.0016-.0268-.001-.0579-.0021-.014,0-.0728-.0027-.015-.0006-.0586-.0022-.02-.0007-.0537-.0021-.023-.0008-.0521-.002-.0207-.0008-.0672-.0026-.0052,0-.0759-.0029-.0062,0-.0643-.0026-.0225-.0008-.0518-.0021-.0214-.0009-.0575-.0024-.0148-.0006-.1474-.0061-.0177-.0007-.0565-.0024-.0186-.0008-.0554-.0024-.0207-.0009-.0571-.0024-.0153-.0007-.1505-.0066-.0054,0-.0656-.0029-.0192-.0009-.0533-.0024-.0222-.001-.0548-.0025-.0177-.0008-.0739-.0034-.001,0-.0722-.0033-.0154-.0007-.0594-.0028-.0155-.0008-.06-.0028-.0151-.0007-.2256-.011-.0059,0-.0665-.0032-.0138-.0008-.0678-.0033-.0045,0-.23-.0117-.0038,0-.0719-.0037-.006,0-.0722-.0038-.0038,0-.23-.0122-.0035,0-.07-.0038-.0091-.0005-.0733-.0041h0l-.2305-.0128-.0049,0-.073-.0041-.0027,0-.2312-.0133h0l-.0748-.0044-.0054,0-.0694-.0041-.0082,0-.2287-.0137-.0011,0-.0713-.0043-.0117-.0007-.0679-.0042-.0048,0-.23-.0143-.0021,0c-.1282-.008-.2569-.0163-.385-.0247l-.0007,0-.0744-.0048-.0048,0-.3057-.02-.0028,0-.0738-.005-.0033,0-.0749-.0051-.0011,0-.2308-.016-.0014,0-.0734-.0051-.0052,0q-4.1742-.2956-8.2908-.8016a12.1235,12.1235,0,0,0-1.46-.0885Zm85.4254-10.9919a11.9661,11.9661,0,0,0-4.43.8522c-.7836.3132-1.5658.6186-2.3555.92l-.0022.0009-.1912.0728-.0052.0019-.0917.0348-.0093.0036-.0909.0344-.007.0026-.0825.0312-.0148.0056-.0809.0305-.0236.0089-.0787.03-.0243.0091-.0622.0234-.0371.0139-.063.0236-.0318.0119-.07.0262-.0353.0132-.0608.0227-.0361.0135-.0548.02-.0362.0135-.0662.0246-.04.0149-.0472.0176-.06.0224-.0369.0137-.067.0247-.0377.014-.0481.0178-.0258.01-.0812.03-.0275.01-.08.03-.0257.0094-.1585.0582-.0253.0092-.0859.0315-.0194.007q-5.4572,1.9932-11.0927,3.5981l-.011.0032c-.0953.0271-.1912.0543-.2866.0812l-.0145.0041-.106.03-.0078.0022-.1683.0472-.0263.0074-.0832.0233-.03.0084-.0524.0147-.06.0165-.0458.0128-.0452.0126-.06.0167-.0472.0131-.05.0138-.0564.0157-.0422.0116-.07.0194-.0339.0093-.0557.0154-.0423.0116-.0655.018-.03.0083-.0762.0208-.0321.0088-.0723.02-.0243.0066-.0735.02-.0244.0066-.0811.0221-.0257.0069-.0842.0229-.0149.004-.0821.0222-.0131.0035-.089.024-.0173.0046-.0905.0244-.011.0029-.0944.0253-.001,0-.0969.0259-.0089.0024-.0946.0252-.01.0026-.1972.0523-.0028.0008-.1.0264-.0028.0007q-3.6456.963-7.3616,1.7593a12,12,0,0,0,5.0556,23.4615,184.3321,184.3321,0,0,0,29.6729-9.0346,12.0021,12.0021,0,0,0-4.4551-23.147Zm49.292-30.0922a11.9535,11.9535,0,0,0-7.867,2.9431l-.1112.0965-.0061.0053-.0777.0674-.0159.0138-.0836.0723-.0016.0014-.1324.1144-.0115.01-.0753.0649-.0143.0124-.13.1123-.0106.009-.0738.0635-.0211.0181-.0638.0547-.024.0205-.0495.0424-.0369.0316-.038.0326-.03.0257-.0532.0456-.03.0257-.051.0435-.0332.0283-.0354.03-.05.0423-.0354.03-.0372.0316-.0459.039-.0365.0311-.0413.035-.0444.0376-.0288.0244-.0557.0473-.0285.024-.0591.05-.0183.0156-.0528.0445-.02.0169-.0616.052-.0232.02-.0586.0493-.0281.0237-.0551.0464-.0218.0183-.0562.0473-.0173.0145-.0647.0542-.0195.0164-.0643.0539-.0187.0157-.067.0561-.01.008-.0645.054-.013.0108-.0673.0562-.0178.0148-.0646.0539-.02.0165-.0674.0562-.0069.0057-.0668.0556-.0137.0113-.072.06-.0086.0072-.0732.0607-.01.008-.153.1267-.0046.0038-.0792.0654-.0009.0008-.0789.0651-.0052.0043-.1575.13-.0029.0024-.0791.065-.0023.0019c-.1089.0894-.2147.1761-.3239.2653l-.0017.0014a161.5748,161.5748,0,0,1-16.983,12.1322l-.0023.0015-.0882.0547-.0016.001-.1767.1094-.0031.0019-.0842.052-.0089.0055-.0835.0515-.0061.0038-.17.1044-.01.0064-.0786.0483-.0158.01-.0765.0469-.0161.01-.0793.0486-.0031.0018-.0743.0454-.0135.0083a12,12,0,1,0,12.5108,20.4812,186.0586,186.0586,0,0,0,24.9929-18.2995,12,12,0,0,0-7.8771-21.0572Zm36.7009-44.59a11.995,11.995,0,0,0-10.4176,6.0265l-.0048.0083-.0476.0829-.0011.0019-.0509.0884-.0015.0027-.0494.0857-.0051.0088-.0479.083-.0066.0114-.0493.0852,0,0-.0512.0885-.0023.0039-.0493.0851-.0056.01-.0484.0834-.0054.0092c-.0508.0875-.1038.1785-.1549.2659l-.003.0052-.05.0863-.0039.0066c-.0511.0874-.1065.1819-.1578.2692l-.0008.0014-.0529.09-.0009.0015a161.3517,161.3517,0,0,1-11.8541,17.4312l-.0019.0024c-.0836.1072-.17.2176-.2539.3246l-.0086.011-.0584.0744-.0065.0082-.06.0766-.0043.0054-.0545.0693-.0116.0146-.0514.0653-.0193.0245-.0487.0617-.0191.0241-.0417.0528-.0248.0314-.0361.0456-.024.03-.0432.0545-.0271.0343-.0362.0456-.0342.0431-.0246.031-.0462.058-.0226.0284-.0616.0775-.0059.0073-.1109.139-.0041.0052q-.7394.9258-1.4918,1.84a12,12,0,1,0,18.5317,15.25,185.8977,185.8977,0,0,0,17.62-25.4813,12.0032,12.0032,0,0,0-10.3952-17.9775Zm19.93-54.2178a12.0036,12.0036,0,0,0-11.7842,9.8083,159.81,159.81,0,0,1-7.1481,26.0032,12,12,0,1,0,22.5221,8.2917,184.39,184.39,0,0,0,8.2215-29.9071,12.0108,12.0108,0,0,0-11.8113-14.1961Zm1.02-57.7249a12.01,12.01,0,0,0-11.8817,13.7851q1.0977,7.3039,1.5309,14.8116l.0006.0109.01.1851,0,.0018.01.1854.0007.0137.01.1784.0007.0135.0092.1746.0011.0209.0088.17.0012.0227.0026.0514.0011.0223.0048.094.0012.0248.0026.0519.0009.0189.0049.1.001.0187.0026.0542.0009.02.0048.0987.0009.02.0026.0546.0007.0155.0053.1118,0,.0078.0026.0564.0009.0183.0051.1124,0,.0054.0025.0542.0011.0252.0043.0965.0007.0179.0023.0524.0011.0237.0046.1059,0,.0106.0022.0513.001.0247.0069.1651.0013.03.002.0507,0,.0012.0045.1119.0011.0277.002.05.0012.03.0032.0821.0012.0317.0019.0479.0014.0366.0028.0744.0012.0327.0018.0487.0013.0324.0027.0748.0014.0388.0017.0449.0012.0354.0026.0723.0014.0394.0015.0427.0015.0427.0021.063.0015.0435.0015.0444.0013.0376.0021.0645.0015.0454.0015.0434.0013.0411.0013.0413.0023.07.0011.036.0014.0464.0012.0376.0022.0709.0011.0368.0015.0488.001.0343.0021.0726.0011.0366.0014.0473.001.0356.002.072.0011.0373.0013.0476.0009.0348.0021.0753.0007.0275.0015.0563.0009.0319.0018.0727.0008.0272.0015.0625.0008.0289.0017.07.0006.0273.0016.0647.0008.0308.0014.0609.0008.0356.0015.065.0007.03.0015.0648,0,.0183.0017.0794.0007.0288.0012.0608.0006.0248.0016.0776.0006.0307.0011.0551.0006.03.0015.0774.0005.0275.0012.06,0,.0273.0014.0776.0005.0276.0011.06,0,.0257.0014.0808,0,.0216.0011.0637,0,.027.0013.0811,0,.017.001.0688,0,.0241.0013.0827,0,.014.001.0707,0,.0264.0012.0816,0,.0107.001.0755,0,.022.001.0853,0,.0017.0009.0828,0,.0238.0009.0787,0,.0061.0009.0829,0,.0257.0007.07,0,.0153.0008.0811,0,.0275.0006.065,0,.0194.0007.082,0,.0236,0,.0672,0,.02.0006.0818,0,.0235,0,.068,0,.018.0006.0838,0,.02,0,.0705,0,.0191,0,.0841,0,.0177,0,.07,0,.0209,0,.0855v.01l0,.0794v.0162l0,.0869,0,.01,0,.0783,0,.0186,0,.0869v.0042l0,.0816V240h0v.1l0,.06v.0218l0,.1585v.02l0,.0654,0,.0152,0,.1618,0,.0178,0,.0646,0,.0181-.0008.162v.0139l0,.0728,0,.01-.0011.1653,0,.0125,0,.0737v.01l-.0014.1651,0,.0131-.0007.0762v.0052l-.0016.1674,0,.0112-.0008.0734,0,.0107-.0009.0835v.0014l-.0009.0777,0,.0175-.0008.0666,0,.0155-.0009.078,0,.0212-.0007.055,0,.0322-.0007.0446,0,.0354-.001.0668-.0007.0481,0,.0231-.0008.0546,0,.0105q-.0022.1542-.0049.3083a12,12,0,0,0,11.7948,12.2018c.0692.0012.1387.0018.2076.0018a12,12,0,0,0,11.9941-11.7965Q505,241.6,505,240a186.9532,186.9532,0,0,0-2.0626-27.6958,12.0034,12.0034,0,0,0-11.8517-10.2182ZM473.002,147.2052a12.0041,12.0041,0,0,0-10.5968,17.6139,160.2235,160.2235,0,0,1,7.4039,16.0868l.0028.0072.0385.0978.0067.017.0405.1028.0026.0066.02.05.01.0259.0317.081.0114.0291.0263.0672.0163.0416.0173.0442.0237.0609.0173.0445.0151.0386.0234.06.0183.0472.0139.0356.0277.0715.0115.03.0291.0752.01.0263.0248.064.01.027.03.0773.0077.02.0319.0831.0067.0173.07.1811.0035.0092.0353.0924.0025.0065q1.3467,3.5237,2.53,7.1219a12,12,0,0,0,22.7869-7.5337,184.5908,184.5908,0,0,0-12.1431-28.5363,11.9987,11.9987,0,0,0-10.6174-6.3909ZM437.886,101.38a12,12,0,0,0-8.1813,20.7812l.0083.0077.0608.0567.0173.0162.0645.06.0106.01.0688.0644.0012.0011.0712.0666.0089.0083.0716.067.0043.0041a162.01,162.01,0,0,1,17.757,19.6087,12,12,0,0,0,19.0373-14.6145,186.4641,186.4641,0,0,0-20.8245-22.9187,11.9591,11.9591,0,0,0-8.176-3.2188ZM389.6687,69.5982a12.002,12.002,0,0,0-4.8428,22.9852q3.322,1.463,6.5639,3.07l0,0,.1066.0528.0039.002.162.0805.0021.0011.1021.0509.0119.0059.1012.05.002.001.1608.0805.0076.0038.0972.0488.0122.0061c.0866.0435.1742.0876.2606.1312l.016.0081.0926.0467.01.0052.101.051.0044.0023.0532.0269.0041.0021.0981.05.0172.0088.0849.0431.02.01.1014.0517.0006,0,.0488.0249.0249.0127.077.0393.0249.0127.0729.0374.0312.0159.0456.0234.0546.028.0462.0237.0293.0151.0708.0363.0283.0146.0752.0388.0257.0132.0459.0237.031.016.0727.0376.0217.0112.0835.0432.0176.0091.092.0477.0114.0059.05.0262.0144.0075.0863.0449.0221.0115.0821.0427.0184.01.0994.0519.0034.0018.0486.0254.021.011.08.0418.0255.0133.08.0421.0187.01.1512.0795.0213.0112.08.0423.0229.0121.0794.0419.02.0106.05.0265.0106.0056.0907.048.02.0108.0837.0444.0177.0094q.1275.0677.2547.1354l.0173.0092.0877.0468.014.0075.1513.0809.0245.0131.0778.0417.02.0108.0874.0469.0138.0074.1542.083.0119.0064.089.048.0158.0085q.1284.0693.2567.1389l.0128.007.0868.0471.0184.01c.0869.0472.1727.0939.26.1413l.0025.0013c.1243.0679.2474.1352.3716.2034l.001.0006c.2132.1171.4252.2341.6378.3521l.0017.0009q.8769.4868,1.7469.984h0c.1219.07.2447.14.3664.21l.0054.003q.3145.1809.6278.363l.0017.0009.1023.0595.0027.0016q.3127.1821.6246.3654l.0068.004.1.0587.0022.0014.1562.0921.0007,0,.1006.0595.0057.0033.2561.1519.0075.0045.0918.0546.0123.0073.2525.1506.0087.0052.0919.055.01.0061.1505.09.01.0061.0893.0537.0151.009.0852.0513.0145.0088.1455.0877.0222.0134.0751.0455.0243.0147.0585.0354.04.0242.0408.0248.0536.0325.0393.0238.0411.025.0543.033.0395.024.0366.0223.0595.0363.0355.0216.0588.0359.033.02.0468.0286.04.0245.0519.0318.0324.02.0624.0383.0317.0194.0607.0373.03.0182.0523.0322.0278.0171.068.0418.0236.0146.07.0429.0233.0144.0734.0453.0087.0054.0688.0426.0206.0127.0742.046.0159.01.0755.0468.0175.0109.0723.0449.0089.0056.0777.0483.0137.0085.0788.0491.0108.0067c.0858.0535.1725.1077.2582.1614l.0061.0038.0844.0529.0049.003c.0856.0537.1765.1108.262.1647l.0042.0026q1.43.9009,2.8391,1.83a12,12,0,0,0,13.1954-20.047A185.1809,185.1809,0,0,0,394.4987,70.619a11.96,11.96,0,0,0-4.83-1.0208Z"/><path class="cls-9" d="M323,118h-6a24,24,0,0,0-24,24v21a12,12,0,0,0,24,0V142h6a12,12,0,0,0,0-24Zm-18,60a12,12,0,0,0-12,12v27a12,12,0,0,0,24,0V190a12,12,0,0,0-12-12Zm0,54a12,12,0,0,0-12,12v27a12,12,0,0,0,24,0V244a12,12,0,0,0-12-12Zm30,17a12,12,0,0,0-12,12v27a12,12,0,0,0,24,0V261a12,12,0,0,0-12-12Zm0-54a12,12,0,0,0-12,12v27a12,12,0,0,0,24,0V207a12,12,0,0,0-12-12Zm0-54a12,12,0,0,0-12,12v27a12,12,0,0,0,24,0V153a12,12,0,0,0-12-12Z"/><path class="cls-9" d="M206.7145,225.3388a11.9627,11.9627,0,0,0-8.4853,3.5147l-4.2426,4.2427a24,24,0,0,0,0,33.9411l14.8493,14.8492a12,12,0,0,0,16.97-16.9705l-14.8492-14.8492h0l.1822-.1823h0l.4807-.4806h0l.6794-.6795h0l.779-.779h0l.7789-.7789h0l.6795-.68h0l.4806-.4806h0l.1823-.1823h0a12,12,0,0,0-8.4853-20.4853Zm29.6985,55.1544a12,12,0,0,0-8.4853,20.4853L247.02,320.07a12,12,0,1,0,16.97-16.97l-19.0918-19.0919a11.9637,11.9637,0,0,0-8.4853-3.5147Zm38.1838,38.1837a12,12,0,0,0-8.4853,20.4853l19.0919,19.0919A12,12,0,0,0,302.18,341.2892l-19.1115-19.1114a11.9618,11.9618,0,0,0-8.4714-3.5009Zm33.2339-9.1924a12,12,0,0,0-8.4853,20.4853l19.0919,19.0919a12,12,0,0,0,16.9706-16.9706L316.316,312.9993a11.9622,11.9622,0,0,0-8.4853-3.5148ZM269.647,271.3008a12,12,0,0,0-8.4853,20.4852l4.1662,4.1662,1.8746,1.8746h0l2.4861,2.4861,10.565,10.565a12,12,0,0,0,16.9706-16.9706l-19.0919-19.0918a11.9624,11.9624,0,0,0-8.4853-3.5147ZM231.4632,233.117a12,12,0,0,0-8.4853,20.4853L242.07,272.6941A12,12,0,0,0,259.04,255.7235l-19.0918-19.0918a11.9623,11.9623,0,0,0-8.4853-3.5147Z"/><path class="cls-9" d="M414.1237,225.3388a11.9627,11.9627,0,0,0-8.4853,3.5147l-19.0918,19.0919a12,12,0,0,0,16.9625,16.9786l19.1-19.1h0a12,12,0,0,0-8.4853-20.4853ZM375.94,263.5226a11.9623,11.9623,0,0,0-8.4852,3.5147l-19.0919,19.0919a12,12,0,0,0,16.9532,16.9879L384.44,283.9934a12,12,0,0,0-8.5-20.4708Zm-38.1837,38.1837a11.9629,11.9629,0,0,0-8.4854,3.5147L310.179,324.3129A12,12,0,0,0,327.15,341.2835l19.0918-19.0919a12,12,0,0,0-8.4852-20.4853Zm17.6776,24.7488a11.9627,11.9627,0,0,0-8.4853,3.5147l-19.0919,19.0919a12,12,0,0,0,16.9706,16.9706L363.9191,346.94a12,12,0,0,0-8.4853-20.4853Zm38.1838-38.1838a11.9625,11.9625,0,0,0-8.4853,3.5147L366.04,310.878a12,12,0,1,0,16.9706,16.9705l19.0919-19.0919a12,12,0,0,0-8.4852-20.4853Zm38.1837-38.1837a11.9629,11.9629,0,0,0-8.4853,3.5147l-19.0918,19.0919a12,12,0,1,0,16.9705,16.9706l19.0919-19.092a12,12,0,0,0-8.4853-20.4852Z"/></svg>