<svg id="wave" style="transform:rotate(180deg); transition: 0.3s" viewBox="0 0 2136 490" version="1.1"
    xmlns="http://www.w3.org/2000/svg">
    <defs>
        <linearGradient id="sw-gradient-0" x1="0" x2="0" y1="1" y2="0">
            <stop stop-color="rgba(0, 0, 0, 1)" offset="0%"></stop>
            <stop stop-color="rgba(248.49, 171.091, 0, 1)" offset="100%"></stop>
        </linearGradient>
    </defs>
    <path style="transform:translate(0, 0px); opacity:1" fill="url(#sw-gradient-0)"
        d="M0,441L30,424.7C60,408,120,376,180,375.7C240,376,300,408,360,375.7C420,343,480,245,540,220.5C600,196,660,245,720,245C780,245,840,196,900,155.2C960,114,1020,82,1080,65.3C1140,49,1200,49,1260,57.2C1320,65,1380,82,1440,81.7C1500,82,1560,65,1620,89.8C1680,114,1740,180,1800,212.3C1860,245,1920,245,1980,253.2C2040,261,2100,278,2160,236.8C2220,196,2280,98,2340,57.2C2400,16,2460,33,2520,81.7C2580,131,2640,212,2700,236.8C2760,261,2820,229,2880,245C2940,261,3000,327,3060,334.8C3120,343,3180,294,3240,261.3C3300,229,3360,212,3420,245C3480,278,3540,359,3600,367.5C3660,376,3720,310,3780,294C3840,278,3900,310,3960,343C4020,376,4080,408,4140,408.3C4200,408,4260,376,4290,359.3L4320,343L4320,490L4290,490C4260,490,4200,490,4140,490C4080,490,4020,490,3960,490C3900,490,3840,490,3780,490C3720,490,3660,490,3600,490C3540,490,3480,490,3420,490C3360,490,3300,490,3240,490C3180,490,3120,490,3060,490C3000,490,2940,490,2880,490C2820,490,2760,490,2700,490C2640,490,2580,490,2520,490C2460,490,2400,490,2340,490C2280,490,2220,490,2160,490C2100,490,2040,490,1980,490C1920,490,1860,490,1800,490C1740,490,1680,490,1620,490C1560,490,1500,490,1440,490C1380,490,1320,490,1260,490C1200,490,1140,490,1080,490C1020,490,960,490,900,490C840,490,780,490,720,490C660,490,600,490,540,490C480,490,420,490,360,490C300,490,240,490,180,490C120,490,60,490,30,490L0,490Z">
    </path>
    <defs>
        <linearGradient id="sw-gradient-1" x1="0" x2="0" y1="1" y2="0">
            <stop stop-color="rgba(27.642, 15.291, 11.324, 1)" offset="0%"></stop>
            <stop stop-color="rgba(255, 179, 11, 1)" offset="100%"></stop>
        </linearGradient>
    </defs>
    <path style="transform:translate(0, 50px); opacity:0.9" fill="url(#sw-gradient-1)"
        d="M0,147L30,196C60,245,120,343,180,343C240,343,300,245,360,245C420,245,480,343,540,334.8C600,327,660,212,720,204.2C780,196,840,294,900,285.8C960,278,1020,163,1080,130.7C1140,98,1200,147,1260,138.8C1320,131,1380,65,1440,32.7C1500,0,1560,0,1620,40.8C1680,82,1740,163,1800,187.8C1860,212,1920,180,1980,196C2040,212,2100,278,2160,269.5C2220,261,2280,180,2340,155.2C2400,131,2460,163,2520,187.8C2580,212,2640,229,2700,245C2760,261,2820,278,2880,310.3C2940,343,3000,392,3060,367.5C3120,343,3180,245,3240,171.5C3300,98,3360,49,3420,57.2C3480,65,3540,131,3600,196C3660,261,3720,327,3780,351.2C3840,376,3900,359,3960,334.8C4020,310,4080,278,4140,245C4200,212,4260,180,4290,163.3L4320,147L4320,490L4290,490C4260,490,4200,490,4140,490C4080,490,4020,490,3960,490C3900,490,3840,490,3780,490C3720,490,3660,490,3600,490C3540,490,3480,490,3420,490C3360,490,3300,490,3240,490C3180,490,3120,490,3060,490C3000,490,2940,490,2880,490C2820,490,2760,490,2700,490C2640,490,2580,490,2520,490C2460,490,2400,490,2340,490C2280,490,2220,490,2160,490C2100,490,2040,490,1980,490C1920,490,1860,490,1800,490C1740,490,1680,490,1620,490C1560,490,1500,490,1440,490C1380,490,1320,490,1260,490C1200,490,1140,490,1080,490C1020,490,960,490,900,490C840,490,780,490,720,490C660,490,600,490,540,490C480,490,420,490,360,490C300,490,240,490,180,490C120,490,60,490,30,490L0,490Z">
    </path>
    <defs>
        <linearGradient id="sw-gradient-2" x1="0" x2="0" y1="1" y2="0">
            <stop stop-color="rgba(0, 0, 0, 1)" offset="0%"></stop>
            <stop stop-color="rgba(255, 179, 11, 1)" offset="100%"></stop>
        </linearGradient>
    </defs>
    <path style="transform:translate(0, 100px); opacity:0.8" fill="url(#sw-gradient-2)"
        d="M0,196L30,204.2C60,212,120,229,180,269.5C240,310,300,376,360,351.2C420,327,480,212,540,179.7C600,147,660,196,720,196C780,196,840,147,900,179.7C960,212,1020,327,1080,351.2C1140,376,1200,310,1260,277.7C1320,245,1380,245,1440,269.5C1500,294,1560,343,1620,359.3C1680,376,1740,359,1800,318.5C1860,278,1920,212,1980,212.3C2040,212,2100,278,2160,269.5C2220,261,2280,180,2340,122.5C2400,65,2460,33,2520,24.5C2580,16,2640,33,2700,40.8C2760,49,2820,49,2880,89.8C2940,131,3000,212,3060,269.5C3120,327,3180,359,3240,383.8C3300,408,3360,425,3420,416.5C3480,408,3540,376,3600,302.2C3660,229,3720,114,3780,73.5C3840,33,3900,65,3960,81.7C4020,98,4080,98,4140,122.5C4200,147,4260,196,4290,220.5L4320,245L4320,490L4290,490C4260,490,4200,490,4140,490C4080,490,4020,490,3960,490C3900,490,3840,490,3780,490C3720,490,3660,490,3600,490C3540,490,3480,490,3420,490C3360,490,3300,490,3240,490C3180,490,3120,490,3060,490C3000,490,2940,490,2880,490C2820,490,2760,490,2700,490C2640,490,2580,490,2520,490C2460,490,2400,490,2340,490C2280,490,2220,490,2160,490C2100,490,2040,490,1980,490C1920,490,1860,490,1800,490C1740,490,1680,490,1620,490C1560,490,1500,490,1440,490C1380,490,1320,490,1260,490C1200,490,1140,490,1080,490C1020,490,960,490,900,490C840,490,780,490,720,490C660,490,600,490,540,490C480,490,420,490,360,490C300,490,240,490,180,490C120,490,60,490,30,490L0,490Z">
    </path>
    <defs>
        <linearGradient id="sw-gradient-3" x1="0" x2="0" y1="1" y2="0">
            <stop stop-color="rgba(243, 106, 62, 1)" offset="0%"></stop>
            <stop stop-color="rgba(255, 179, 11, 1)" offset="100%"></stop>
        </linearGradient>
    </defs>
    <path style="transform:translate(0, 150px); opacity:0.7" fill="url(#sw-gradient-3)"
        d="M0,343L30,302.2C60,261,120,180,180,171.5C240,163,300,229,360,228.7C420,229,480,163,540,171.5C600,180,660,261,720,277.7C780,294,840,245,900,187.8C960,131,1020,65,1080,49C1140,33,1200,65,1260,130.7C1320,196,1380,294,1440,326.7C1500,359,1560,327,1620,285.8C1680,245,1740,196,1800,171.5C1860,147,1920,147,1980,171.5C2040,196,2100,245,2160,261.3C2220,278,2280,261,2340,269.5C2400,278,2460,310,2520,326.7C2580,343,2640,343,2700,334.8C2760,327,2820,310,2880,302.2C2940,294,3000,294,3060,318.5C3120,343,3180,392,3240,383.8C3300,376,3360,310,3420,253.2C3480,196,3540,147,3600,122.5C3660,98,3720,98,3780,155.2C3840,212,3900,327,3960,326.7C4020,327,4080,212,4140,155.2C4200,98,4260,98,4290,98L4320,98L4320,490L4290,490C4260,490,4200,490,4140,490C4080,490,4020,490,3960,490C3900,490,3840,490,3780,490C3720,490,3660,490,3600,490C3540,490,3480,490,3420,490C3360,490,3300,490,3240,490C3180,490,3120,490,3060,490C3000,490,2940,490,2880,490C2820,490,2760,490,2700,490C2640,490,2580,490,2520,490C2460,490,2400,490,2340,490C2280,490,2220,490,2160,490C2100,490,2040,490,1980,490C1920,490,1860,490,1800,490C1740,490,1680,490,1620,490C1560,490,1500,490,1440,490C1380,490,1320,490,1260,490C1200,490,1140,490,1080,490C1020,490,960,490,900,490C840,490,780,490,720,490C660,490,600,490,540,490C480,490,420,490,360,490C300,490,240,490,180,490C120,490,60,490,30,490L0,490Z">
    </path>
</svg>